<svg width="24" height="13" viewBox="0 0 24 13" fill="none" xmlns="http://www.w3.org/2000/svg">
<path d="M2.01562 11.0156H21.9844V12.9844H2.01562V11.0156ZM3.14062 6.9375L3.98438 5.48438L4.82812 6.9375L6.14062 6.1875L5.29688 4.73438H6.98438V3.23438H5.29688L6.14062 1.73438L4.82812 0.984375L3.98438 2.48438L3.14062 0.984375L1.82812 1.73438L2.71875 3.23438H0.984375V4.73438H2.71875L1.82812 6.1875L3.14062 6.9375ZM9.84375 6.1875L11.1562 6.9375L12 5.48438L12.8438 6.9375L14.1562 6.1875L13.3125 4.73438H15V3.23438H13.3125L14.1562 1.73438L12.8438 0.984375L12 2.48438L11.1562 0.984375L9.84375 1.73438L10.6875 3.23438H9V4.73438H10.6875L9.84375 6.1875ZM23.0156 3.23438H21.2812L22.1719 1.73438L20.8594 0.984375L20.0156 2.48438L19.1719 0.984375L17.8594 1.73438L18.7031 3.23438H17.0156V4.73438H18.7031L17.8594 6.1875L19.1719 6.9375L20.0156 5.48438L20.8594 6.9375L22.1719 6.1875L21.2812 4.73438H23.0156V3.23438Z" fill="white"/>
</svg>
