<svg width="18" height="18" viewBox="0 0 18 18" fill="none" xmlns="http://www.w3.org/2000/svg">
<path d="M3.70312 12.1406C5.54688 11.3906 7.3125 11.0156 9 11.0156C10.6875 11.0156 12.4375 11.3906 14.25 12.1406C16.0938 12.8594 17.0156 13.8125 17.0156 15V17.0156H0.984375V15C0.984375 13.8125 1.89062 12.8594 3.70312 12.1406ZM11.8125 7.82812C11.0312 8.60938 10.0938 9 9 9C7.90625 9 6.96875 8.60938 6.1875 7.82812C5.40625 7.04688 5.01562 6.10938 5.01562 5.01562C5.01562 3.92188 5.40625 2.98438 6.1875 2.20312C6.96875 1.39063 7.90625 0.984375 9 0.984375C10.0938 0.984375 11.0312 1.39063 11.8125 2.20312C12.5938 2.98438 12.9844 3.92188 12.9844 5.01562C12.9844 6.10938 12.5938 7.04688 11.8125 7.82812Z" fill="white"/>
</svg>
